<?xml version="1.0" standalone="no"?>
<svg viewBox="0 0 200 200" xmlns="http://www.w3.org/2000/svg">
  <path fill="#FFFFFF" d="M37.3,-56.7C44.2,-53.5,43,-36.3,49.7,-22.4C56.4,-8.6,71,1.9,69.7,9.9C68.3,17.9,51,23.5,40.2,33.5C29.5,43.5,25.3,57.9,15.3,68.1C5.3,78.3,-10.6,84.3,-22.5,79.5C-34.4,74.7,-42.3,59.1,-45.4,45.1C-48.5,31.1,-46.9,18.8,-51.5,5.6C-56.2,-7.6,-67.2,-21.6,-68.7,-36.7C-70.1,-51.8,-62,-67.9,-49,-68.3C-36,-68.7,-18,-53.4,-1.4,-51.1C15.2,-48.9,30.3,-59.8,37.3,-56.7Z" transform="translate(100 100)" />
</svg>
